<?xml version="1.0" encoding="utf-8"?>
<!-- Generator: Adobe Illustrator 26.0.1, SVG Export Plug-In . SVG Version: 6.00 Build 0)  -->
<svg version="1.1" id="圖層_1" xmlns="http://www.w3.org/2000/svg" xmlns:xlink="http://www.w3.org/1999/xlink" x="0px" y="0px"
	 viewBox="0 0 150 50" style="enable-background:new 0 0 150 50;" xml:space="preserve">
<style type="text/css">
	.st0{fill:#831C2E;}
	.st1{fill:#841D30;}
	.st2{fill:#070001;}
	.st3{fill:#821A2D;}
	.st4{fill:#FFFFFF;}
</style>
<g id="圖層_2_00000067955450396654814920000014027035311752176773_">
	<g id="圖層_4">
		<polygon class="st0" points="25,14.4 30.3,14.4 30.3,21.7 31.3,21.7 31.3,14.4 36,14.4 36,34.1 31.3,34.1 31.3,25 30.3,25 
			30.3,34.1 25,34.1 		"/>
		<rect x="36.8" y="14.4" class="st1" width="4.6" height="3.5"/>
		<rect x="36.8" y="18.5" class="st1" width="4.6" height="15.6"/>
		<polygon class="st2" points="42.2,14.4 53.2,14.4 53.2,17.9 50.4,17.9 50.4,34.1 45.1,34.1 45.1,17.9 42.2,17.9 		"/>
		<path class="st2" d="M66.2,14.4v16.3c0.3,1.5,2.4,3.4,5.8,3.5c3.4,0.1,5.2-1.6,5.8-3.5V14.4h-5.3v16.3c-0.1,0.2-0.3,0.4-0.5,0.3
			c-0.3,0-0.4-0.1-0.6-0.3V14.4L66.2,14.4z"/>
		<path class="st2" d="M89.9,21.2v-3.8c0,0-0.3-2.1-3.8-3h-3.6c0,0-2.9,0.1-4.1,2.4c0,0-1,3.1,0,5.1c1,2.1,6.4,5.1,6.4,5.1v3.6
			c-1,1.3-2,0-2,0v-4.7H78v4.7c0.7,1.6,2.5,3.3,4.7,3.5h2.1c0,0,3.4-0.3,4.5-3.2c0.6-2,0.4-4.2-0.4-6.1c-0.4-0.3-5.3-4-5.3-4v-2.5
			c-0.1-0.3,1.1-1,1.6,0V21"/>
		<polygon class="st2" points="89.9,14.4 101.5,14.4 101.5,17.8 98.5,17.8 98.5,33.5 93.1,33.5 93.1,17.9 89.9,17.9 		"/>
		<path class="st2" d="M62.8,22.9c2.8-0.6,2.8-4.3,2.8-4.3c-0.2-4.2-2.9-4.2-2.9-4.2H54v19.7h5.3v-9.2c1.1-0.2,1.1,1.1,1.1,1.1v8.1
			h5.2V26C65.7,23.1,62.8,22.9,62.8,22.9z M61,19.6c0.1,2.3-1.7,2.4-1.7,2.4v-4.7C59.3,17.3,61.2,17,61,19.6L61,19.6z"/>
		<path class="st3" d="M96.4,40.5l0.9-4.9c0,0-7.7,2.2-12.4,3.1c0,0-7.9,1.4-14.7,2.2c-4.5,0.5-9.1,0.7-13.7,0.7
			c0,0-10.9,0.5-12.9-6.9c0,0,0.6-1.2,1.1-0.4c0,0,1.1,3.9,6.1,5.3c0,0,2.6,1,11,0.6c0,0,11.4-0.5,15.9-1.6
			c4.2-0.6,8.3-1.4,12.4-2.4c0,0,6.1-1.5,7.8-1.9l-0.4,0.4l2.9-14.7v-0.4l8.4,0.2l-0.1,0.4h1l0.1-0.4h4.6c0,0,0.9-0.1,1.1,0.4h7.1
			c0,0,1.2-3.5,0.8-4.9c0,0-1.4-3.3-5-4.1c-1.9-0.6-3.9-0.9-5.8-1.1c-3.3-0.2-6.7-0.2-10.1,0c-1.6,0.2-7.2,0.5-8.8,0.8
			c-1.6,0.3-4.2,0.6-7.2,1.5c0,0-6.2,1.5-6.8,1.6c0,0-1.1,0-0.2-1.1c0,0,12.1-3.9,26.2-4.3c0,0,8-0.3,13.8,1.3c0,0,4,1.4,5.2,4.6
			c0,0,0.8,2.1-0.5,5.7c0,0,0,0.4-2.1,7.8c0,0-2.5,8.4-3.4,9.9c-0.8,1.5-1.4,2.7-3.3,3.1c0,0-3.1,0.8-4.1-0.5s0-2.1,0-2.1
			c0.5-0.4,1-0.8,1.7-0.9l0.6-0.2v-0.6l-1.5-0.1l-0.1,0.5h-3.2l0.1-0.4l-0.2-0.1l-0.6,0.5c-0.8,0.3-1.6,0.2-2.4-0.2l-0.1-0.3
			l-1.5,0.2c-0.8,0.4-1.7,0.4-2.6,0.1l-0.6,3.6"/>
		<path class="st4" d="M122.3,20.5h-2.1L117,32.7l0,0l1-12.2h-2.2l-0.6,15.6c0.1,1.9-2.7,2.3-2.7,2.3c-0.4,0.6-0.4,0.9-0.2,1.5
			c0.2,0.6,3,1.7,4.6-1.1c0.4-0.7,2.1-4.9,2.3-5.6C120.2,29.8,122.3,20.5,122.3,20.5"/>
		<path class="st4" d="M106.5,21c-0.3-0.4-0.8-0.5-1.3-0.4c-0.8,0.2-1.4,0.7-1.7,1.4h-0.8l0.2-1.2H101l-3.4,18.6h2.1l0.9-4.6
			c1.1,2.2,2.2,1.6,2.2,1.6c0.7,0.1,1.3-0.7,1.3-0.7c1.2-1.8,2.7-12.5,2.7-12.5C107.1,21.6,106.5,21,106.5,21z M102.3,33.5
			c-1.1,1.3-1.6,0-1.6,0l2-10.4c1-1,1.5,0.3,1.5,0.3L102.3,33.5z"/>
		<path class="st4" d="M112.5,20.6c-0.7-0.3-2.3,0.1-3.1,0.7c-2.2,2.1-2,4-2,4s0,0.5,0.7,0.8c0.9,0.2,1.1-0.4,1.1-0.4s0.6-2.5,1.7-3
			c1.1-0.5,1,0.9,1,0.9c0,1.1-0.5,2.2-1.5,2.8c-1.7,0.7-3.1,1.9-4.2,3.3c-1.4,2.6-0.8,5.5-0.8,5.5c0.2,1.4,1.9,1.3,1.9,1.3
			c0.8-0.3,1.2-1.5,1.2-1.5h1l-0.2,1.5h2.4l2.6-13.3C114.4,21.2,113,20.9,112.5,20.6z M109.6,34.1c-0.4,0.6-1,0.2-1,0.2
			s-0.5-0.1-0.2-2.2c0.3-2.1,1-2.7,1-2.7s0.8-0.8,1.3,0L109.6,34.1z"/>
	</g>
</g>
</svg>
